<svg viewBox="0 0 24 24" xmlns="http://www.w3.org/2000/svg" fill-rule="evenodd" clip-rule="evenodd"><path d="M24 23h-24v-19h4v-3h4v3h8v-3h4v3h4v19zm-1-15h-22v14h22v-14zm-16.501 8.794l1.032-.128c.201.93.693 1.538 1.644 1.538.957 0 1.731-.686 1.731-1.634 0-.989-.849-1.789-2.373-1.415l.115-.843c.91.09 1.88-.348 1.88-1.298 0-.674-.528-1.224-1.376-1.224-.791 0-1.364.459-1.518 1.41l-1.032-.171c.258-1.319 1.227-2.029 2.527-2.029 1.411 0 2.459.893 2.459 2.035 0 .646-.363 1.245-1.158 1.586.993.213 1.57.914 1.57 1.928 0 1.46-1.294 2.451-2.831 2.451-1.531 0-2.537-.945-2.67-2.206zm9.501 2.206h-1.031v-6.265c-.519.461-1.354.947-1.969 1.159v-.929c1.316-.576 2.036-1.402 2.336-1.965h.664v8zm7-14h-22v2h22v-2zm-16-3h-2v2h2v-2zm12 0h-2v2h2v-2z"/></svg>
